<svg width="101" height="37" viewBox="0 0 101 37" fill="none" xmlns="http://www.w3.org/2000/svg">
<g clip-path="url(#clip0)">
<g opacity="0.5">
<path d="M93.2 9.79999L84.7 16.5L76.2 9.79999L67.7 16.5L59.2 9.79999L50.9 16.4L50.8 16.5L42.3 9.70001L33.8 16.5L25.3 9.70001L16.8 16.5L8.29999 9.70001L0 16.3V17.7L8.29999 11L16.8 17.8L25.3 11L33.8 17.8L42.3 11L50.8 17.8L50.9 17.7L59.2 11.1L67.7 17.8L76.2 11.1L84.7 17.8L93.2 11.1L101.7 17.8L101.8 17.7V16.4L101.7 16.5L93.2 9.79999Z" fill="#1565D8"/>
<path d="M101.7 6.79999L93.2 0.100006L84.7 6.79999L76.2 0.100006L67.7 6.79999L59.2 0.100006L50.9 6.70001L50.8 6.79999L42.3 0L33.8 6.79999L25.3 0L16.8 6.79999L8.29999 0L0 6.60001V7.89999L8.29999 1.29999L16.8 8.10001L25.3 1.29999L33.8 8.10001L42.3 1.29999L50.8 8.10001L50.9 8L59.2 1.39999L67.7 8.10001L76.2 1.39999L84.7 8.10001L93.2 1.39999L101.7 8.10001L101.8 8V6.70001L101.7 6.79999Z" fill="#1565D8"/>
<path d="M93.2 29.3L84.7 36L76.2 29.3L67.7 36L59.2 29.3L50.9 35.9L50.8 36L42.3 29.2L33.8 36L25.3 29.2L16.8 36L8.29999 29.2L0 35.8V37.1L8.29999 30.5L16.8 37.3L25.3 30.5L33.8 37.3L42.3 30.5L50.8 37.3L50.9 37.2L59.2 30.6L67.7 37.3L76.2 30.6L84.7 37.3L93.2 30.6L101.7 37.3L101.8 37.2V35.9L101.7 36L93.2 29.3Z" fill="#1565D8"/>
<path d="M93.2 19.5L84.7 26.3L76.2 19.5L67.7 26.3L59.2 19.5L50.9 26.2H50.8L42.3 19.5L33.8 26.2L25.3 19.5L16.8 26.2L12.55 22.85L8.29999 19.5L0 26.1V27.4L8.29999 20.8L16.8 27.6L25.3 20.8L33.8 27.6L42.3 20.8L50.8 27.6L50.9 27.5L59.2 20.9L67.7 27.6L76.2 20.9L84.7 27.6L93.2 20.9L101.7 27.6L101.8 27.5V26.2L101.7 26.3L93.2 19.5Z" fill="#1565D8"/>
</g>
</g>
<defs>
<clipPath id="clip0">
<rect width="101" height="37" fill="white"/>
</clipPath>
</defs>
</svg>
